<!DOCTYPE svg PUBLIC "-//W3C//DTD SVG 1.1//EN" "http://www.w3.org/Graphics/SVG/1.1/DTD/svg11.dtd">
<!-- Uploaded to: SVG Repo, www.svgrepo.com, Transformed by: SVG Repo Mixer Tools -->
<svg height="800px" width="800px" version="1.1" id="Layer_1" xmlns="http://www.w3.org/2000/svg" xmlns:xlink="http://www.w3.org/1999/xlink" viewBox="0 0 512 512" xml:space="preserve" fill="#000000" transform="matrix(-1, 0, 0, 1, 0, 0)">
<g id="SVGRepo_bgCarrier" stroke-width="0"/>
<g id="SVGRepo_tracerCarrier" stroke-linecap="round" stroke-linejoin="round"/>
<g id="SVGRepo_iconCarrier"> <path style="fill:#00CEA6;" d="M439.568,489.166C402.347,503.887,361.794,512,319.337,512C163.102,512,32.472,402.462,0,256 C32.472,109.538,163.102,0,319.337,0c42.457,0,83.012,8.112,120.231,22.834c-48.487,22.042-88.885,58.763-115.523,104.487 c-15.989,27.445,3.85,61.896,35.613,61.896l0,0c5.055,0,10.068-0.93,14.786-2.746l82.252-41.776h18.878L445.217,256l30.356,111.304 h-18.878l-82.253-41.777c-4.718-1.814-9.73-2.745-14.786-2.745l0,0c-31.763,0-51.602,34.451-35.613,61.896 C350.681,430.403,391.08,467.124,439.568,489.166z"/> <path style="fill:#00755F;" d="M303.16,511.591c-27.096-1.32-53.325-5.933-78.295-13.454 c-17.425-19.705-32.746-41.328-45.574-64.463c-29.914-53.95-45.726-115.389-45.726-177.674s15.812-123.724,45.726-177.674 c12.828-23.135,28.149-44.758,45.574-64.463c24.97-7.522,51.199-12.134,78.295-13.454c1.913-0.078,3.82-0.174,5.74-0.226 C230.579,60.171,184.562,153.894,184.562,256S230.579,451.829,308.9,511.817C306.98,511.765,305.073,511.669,303.16,511.591z"/> <path style="fill:#00A384;" d="M500.87,345.043h-31.368l-21.358-78.315c-0.934,0.254-1.912,0.402-2.926,0.402H300.522 c-6.147,0-11.13-4.983-11.13-11.13s4.983-11.13,11.13-11.13h144.696c1.014,0,1.992,0.148,2.926,0.402l21.358-78.315h31.368 c6.147,0,11.13-4.983,11.13-11.13s-4.983-11.13-11.13-11.13h-25.296h-8.095h-10.783l-82.252,41.776 c-4.718,1.814-9.73,2.746-14.786,2.746l0,0c-31.763,0-51.602-34.451-35.613-61.896c26.637-45.724,67.036-82.445,115.523-104.487 C402.347,8.112,361.794,0,319.337,0c-6.797,0-13.542,0.22-20.237,0.629C226.456,53.658,178.087,148.191,178.087,256 s48.37,202.342,121.012,255.371c6.695,0.409,13.44,0.629,20.237,0.629c42.457,0,83.012-8.113,120.231-22.834 c-48.487-22.042-88.885-58.763-115.524-104.487c-15.989-27.445,3.85-61.896,35.613-61.896l0,0c5.055,0,10.067,0.931,14.786,2.745 l82.252,41.777h10.784h8.095h25.296c6.147,0,11.13-4.983,11.13-11.13C512,350.027,507.017,345.043,500.87,345.043z M247.096,267.13 h-2.226c-6.147,0-11.13-4.983-11.13-11.13s4.983-11.13,11.13-11.13h2.226c6.147,0,11.13,4.983,11.13,11.13 S253.243,267.13,247.096,267.13z"/> <path style="fill:#0B4237;" d="M102.4,189.217c0,6.147-4.983,11.13-11.13,11.13h-2.226c-6.147,0-11.13-4.983-11.13-11.13 c0-6.147,4.983-11.13,11.13-11.13h2.226C97.417,178.087,102.4,183.07,102.4,189.217z"/> <path style="fill:#00755F;" d="M0,256c0.828-3.736,1.737-7.444,2.692-11.13h64.09c6.147,0,11.13,4.984,11.13,11.13 s-4.983,11.13-11.13,11.13H2.692C1.737,263.444,0.828,259.736,0,256z"/> </g>
</svg>