<?xml version="1.0" encoding="iso-8859-1"?>
<!-- Uploaded to: SVG Repo, www.svgrepo.com, Generator: SVG Repo Mixer Tools -->
<svg height="800px" width="800px" version="1.1" id="Layer_1" xmlns="http://www.w3.org/2000/svg" xmlns:xlink="http://www.w3.org/1999/xlink" 
	 viewBox="0 0 512.001 512.001" xml:space="preserve">
<g>
	<ellipse style="fill:#C9171D;" cx="202.7" cy="168.045" rx="59.574" ry="50.333"/>
	<ellipse style="fill:#C9171D;" cx="314.116" cy="186.128" rx="59.574" ry="45.937"/>
	<ellipse style="fill:#C9171D;" cx="202.7" cy="343.96" rx="59.574" ry="50.333"/>
	<ellipse style="fill:#C9171D;" cx="314.116" cy="325.877" rx="59.574" ry="45.937"/>
</g>
<path style="fill:#FF931E;" d="M434.167,183.155l-54.703,31.836c-38.177-28.898-96.159-62.097-161.09-62.097
	C103.403,152.894,10.2,256.98,10.2,256.98s93.202,104.087,208.173,104.087c64.931,0,122.913-33.197,161.09-62.097l54.703,31.836
	c40.793-15.961,67.635-43.068,67.635-73.826S474.96,199.115,434.167,183.155z"/>
<path d="M437.882,173.656c-2.898-1.132-6.154-0.883-8.847,0.682l-48.091,27.988c1.942-5.222,2.944-10.645,2.944-16.204
	c0-30.953-31.301-56.134-69.777-56.134c-17.487,0-34.287,5.276-47.054,14.615c-10.696-22.221-35.85-37.095-64.363-37.095
	c-35.103,0-64.44,22.59-69.111,52.251c-22.779,8.907-45.68,21.223-68.209,36.784c-38.227,26.405-61.79,52.532-62.774,53.63
	c-3.468,3.873-3.468,9.734,0,13.608c0.984,1.099,24.546,27.226,62.774,53.631c22.646,15.643,45.667,28.002,68.562,36.92
	c2.625,13.259,10.24,25.343,21.849,34.478c12.849,10.113,29.508,15.681,46.909,15.681c28.513,0,53.666-14.874,64.363-37.093
	c12.767,9.339,29.566,14.615,47.054,14.615c38.475,0,69.777-25.182,69.777-56.134c0-4.687-0.703-9.287-2.091-13.753l47.238,27.491
	c2.692,1.566,5.948,1.816,8.847,0.682c46.41-18.157,74.119-49.305,74.119-83.321S484.293,191.815,437.882,173.656z M363.491,186.123
	c0,1.628-0.157,3.242-0.461,4.837c-20.801-13.577-45.545-26.82-72.943-35.993c7.266-2.969,15.499-4.58,24.026-4.58
	C341.34,150.387,363.491,166.418,363.491,186.123z M202.696,127.909c15.766,0,30.342,6.307,39.507,16.185
	c-7.82-0.909-15.77-1.398-23.829-1.398c-19.752,0-40.122,3.02-60.736,8.918C165.378,137.591,182.697,127.909,202.696,127.909z
	 M24.369,256.986c12.682-12.617,42.854-40.356,83.064-62.431c11.58,18.206,17.667,39.105,17.667,60.96
	c0,22.764-6.597,44.437-19.105,63.139c-10.576-5.849-20.187-11.934-28.612-17.736C52.363,283.683,33.669,266.26,24.369,256.986z
	 M159.103,362.755c20.114,5.625,39.987,8.511,59.271,8.511c7.316,0,14.537-0.421,21.656-1.175
	c-9.207,8.616-22.761,14.007-37.333,14.007C183.988,384.096,167.463,375.47,159.103,362.755z M314.113,361.618
	c-7.48,0-14.734-1.236-21.306-3.542c26.44-9.168,50.33-22.066,70.501-35.257c0.121,1.015,0.185,2.037,0.185,3.064
	C363.491,345.587,341.34,361.618,314.113,361.618z M434.964,319.469l-14.717-8.565c33.729-12.74,52.661-31.856,52.661-53.924
	c0-7.484-2.191-14.744-6.513-21.576c-3.009-4.76-9.308-6.179-14.072-3.168c-4.76,3.011-6.179,9.311-3.167,14.072
	c2.257,3.569,3.353,7.06,3.353,10.673c0,15.422-21.417,30.755-55.958,40.134l-11.958-6.959c-3.555-2.067-8.006-1.799-11.285,0.683
	c-25.811,19.539-61.844,41.746-103.075,52.873c-8.645-8.358-15.613-18.087-20.717-28.992c-2.388-5.101-8.457-7.302-13.561-4.914
	c-5.102,2.388-7.302,8.459-4.914,13.561c4.274,9.133,9.625,17.586,15.981,25.275c-9.364,1.436-18.93,2.227-28.649,2.227
	c-34.255,0-66.569-9.959-94.085-22.87c13.909-21.603,21.21-46.446,21.21-72.484c0-25.105-6.826-49.139-19.809-70.216
	c27.817-12.924,59.383-22.205,92.683-22.205c62.512,0,118.757,32.644,154.934,60.028c3.279,2.482,7.728,2.752,11.285,0.683
	l50.371-29.315c35.57,15.067,56.638,38.202,56.638,62.489C491.603,281.267,470.534,304.402,434.964,319.469z"/>
<path d="M439.663,213.331c-1.637-0.893-2.444-1.249-3.534-1.667c-0.328-0.126-0.639-0.245-1.404-0.598
	c-5.117-2.357-11.173-0.121-13.532,4.995c-2.358,5.116-0.121,11.174,4.994,13.531c1.27,0.585,2.002,0.874,2.644,1.12l0.221,0.086
	c0.008,0.003,0.194,0.087,0.84,0.44c1.551,0.847,3.225,1.248,4.876,1.248c3.612,0,7.111-1.923,8.962-5.316
	C446.429,222.225,444.608,216.029,439.663,213.331z"/>
<path d="M240.3,273.108c0-5.633-4.566-10.199-10.199-10.199c-5.633,0-10.199,4.566-10.199,10.199c0,5.361,0.361,10.753,1.074,16.026
	c0.693,5.119,5.069,8.835,10.094,8.835c0.455,0,0.915-0.031,1.379-0.093c5.582-0.754,9.495-5.891,8.742-11.473
	C240.6,282.031,240.3,277.558,240.3,273.108z"/>
<path d="M90.072,228.263c-7.092,0-12.861,5.77-12.861,12.861s5.77,12.861,12.861,12.861c7.092,0,12.861-5.77,12.861-12.861
	S97.164,228.263,90.072,228.263z"/>
</svg>