<?xml version="1.0" encoding="iso-8859-1"?>
<!-- Uploaded to: SVG Repo, www.svgrepo.com, Generator: SVG Repo Mixer Tools -->
<svg height="800px" width="800px" version="1.1" id="Layer_1" xmlns="http://www.w3.org/2000/svg" xmlns:xlink="http://www.w3.org/1999/xlink" 
	 viewBox="0 0 512 512" xml:space="preserve">
<g>
	<path style="fill:#61ACD2;" d="M386.813,190.025c-25.282-13.006-54.331-16.867-82.191-10.864l-157.284,32.309l-91.195-83.203
		l280.647,2.107c18.762,0.153,35.216,12.582,40.466,30.602L386.813,190.025z"/>
	<path style="fill:#61ACD2;" d="M339.262,338.364c-23.117,15.595-86.251,52.554-154.471,44.138l59.345-49.14
		C274.479,338.223,306.941,340.659,339.262,338.364z"/>
	<path style="fill:#61ACD2;" d="M194.101,322.969c-22.552,10.982-75.14,34.204-119.949,35.993l61.016-53.978
		C151.646,310.869,171.714,317.296,194.101,322.969z"/>
</g>
<path style="fill:#F4A026;" d="M512,255.385c-24.87,32.285-55.084,53.778-87.793,67.372c-27.13,11.264-55.967,17.102-84.933,19.138
	h-0.012c-32.321,2.295-64.783-0.141-95.126-5.002c-17.526-2.801-34.345-6.415-50.035-10.393
	c-22.387-5.673-42.455-12.1-58.933-17.985c-28.978-10.334-46.892-18.997-46.892-18.997v-0.012L0,364.835l41.195-110.039L0,144.746
	l88.276,75.329l59.062-12.135l157.284-32.309c27.86-6.003,56.909-2.142,82.191,10.864c1.012,0.53,24.635,13.524,24.635,13.524
	L512,255.385z"/>
<path style="fill:#61ACD2;" d="M411.448,200.018l-1.848,1.224l-27.522,24.723H262.474c-5.2,0-9.416,4.216-9.416,9.416
	c0,5.2,4.216,9.416,9.416,9.416h98.641l-20.958,18.826l26.75,18.838H242.464c-5.2,0-9.416,4.216-9.416,9.416
	c0,5.2,4.216,9.416,9.416,9.416h150.657c0.166,0,0.327-0.016,0.491-0.025l30.111,21.205l0.483,0.282
	c32.709-13.594,62.923-35.087,87.793-67.372L411.448,200.018z"/>
<circle style="fill:#495577;" cx="426.078" cy="246.278" r="9.416"/>
</svg>