<?xml version="1.0" encoding="iso-8859-1"?>
<!-- Uploaded to: SVG Repo, www.svgrepo.com, Generator: SVG Repo Mixer Tools -->
<svg height="800px" width="800px" version="1.1" id="Layer_1" xmlns="http://www.w3.org/2000/svg" xmlns:xlink="http://www.w3.org/1999/xlink" 
	 viewBox="0 0 302.645 302.645" xml:space="preserve">
<g id="XMLID_984_">
	<g id="XMLID_989_">
		<path id="XMLID_990_" style="fill:#9DD7F5;" d="M250,82.434c-40-40-80-50-120-50c-70,0-130,53.726-130,120
			c0,53.143,34.548,98.209,82.406,113.985c30.389,6.946,59.05,4.255,80.135-7.807c2.598-1.486,5.052-3.113,7.392-4.851
			c22.671,10.789,49.822,15.975,66.395,16.406c20.13,0.525,42.522-3.634,63.672-17.734C300,252.434,320,152.434,250,82.434z"/>
	</g>
	<path id="XMLID_992_" style="fill:#78B9EB;" d="M300,252.434c0,0,20-100-50-170c-26.667-26.667-53.333-39.989-80-45.915v217.274
		c22.657,10.768,49.771,15.943,66.328,16.375C256.458,270.694,278.85,266.535,300,252.434z"/>
	<g id="XMLID_58_">
		<path id="XMLID_994_" style="fill:#78B9EB;" d="M217.033,213.651c5.944-25.759,1.502-52.291-12.51-74.709
			c-14.011-22.418-35.913-38.038-61.672-43.982c-41.473-9.563-83.006,16.386-92.577,57.86c-3.648,15.811-0.922,32.098,7.679,45.858
			c8.601,13.76,22.045,23.348,37.857,26.996c12.576,2.899,25.534,0.732,36.481-6.108c10.946-6.842,18.573-17.538,21.476-30.115
			c2.34-10.137,0.592-20.578-4.923-29.4c-5.514-8.822-14.133-14.969-24.27-17.309c-8.294-1.913-16.836-0.483-24.052,4.028
			c-7.218,4.511-12.246,11.563-14.16,19.855l19.488,4.496c0.712-3.087,2.585-5.713,5.271-7.392c2.688-1.681,5.87-2.214,8.955-1.5
			c4.932,1.138,9.125,4.128,11.807,8.42c2.683,4.292,3.533,9.371,2.395,14.304c-1.701,7.373-6.172,13.642-12.588,17.652
			c-6.418,4.011-14.01,5.279-21.385,3.58c-10.605-2.447-19.624-8.878-25.393-18.108c-5.77-9.23-7.599-20.154-5.15-30.76
			c7.091-30.729,37.865-49.962,68.592-42.87c20.554,4.743,38.029,17.206,49.209,35.094s14.725,39.059,9.981,59.611
			c-4.437,19.226-13.766,34.211-27.747,44.703c0.044-0.032,0.091-0.062,0.135-0.094c6.747,3.211,13.892,5.922,21.036,8.163
			C203.689,249.329,212.572,232.981,217.033,213.651z"/>
	</g>
	<path id="XMLID_993_" style="fill:#006DF0;" d="M204.523,138.942c-8.744-13.99-20.578-25.307-34.488-33.301v24.162
		c6.817,5.479,12.756,12.103,17.528,19.738c11.18,17.888,14.725,39.059,9.981,59.611c-4.437,19.226-13.766,34.211-27.747,44.703
		c0.044-0.032,0.091-0.062,0.135-0.094c6.747,3.211,13.892,5.922,21.036,8.163c12.721-12.597,21.604-28.944,26.064-48.274
		C222.977,187.892,218.535,161.36,204.523,138.942z"/>
</g>
</svg>