<?xml version="1.0" encoding="iso-8859-1"?>
<!-- Uploaded to: SVG Repo, www.svgrepo.com, Generator: SVG Repo Mixer Tools -->
<svg height="800px" width="800px" version="1.1" id="Layer_1" xmlns="http://www.w3.org/2000/svg" xmlns:xlink="http://www.w3.org/1999/xlink" 
	 viewBox="0 0 340 340" xml:space="preserve">
<g id="XMLID_965_">
	<path id="XMLID_966_" style="fill:#FFDA44;" d="M170,25C76.111,25,0,88.873,0,180c60,75,130,135,170,135s110-60,170-135
		C340,88.873,263.889,25,170,25z"/>
	<path id="XMLID_967_" style="fill:#FF9811;" d="M170,25c93.889,0,170,63.873,170,155c-60,75-130,135-170,135"/>
	<path id="XMLID_968_" style="fill:#FF9811;" d="M303.81,222.092C295.022,156.088,238.368,105,170,105S44.978,156.088,36.19,222.092
		c6.269,6.77,12.559,13.305,18.83,19.547C55.014,241.093,55,240.548,55,240c0-63.411,51.589-115,115-115s115,51.589,115,115
		c0,0.548-0.014,1.093-0.021,1.639C291.251,235.396,297.541,228.861,303.81,222.092z"/>
	<path id="XMLID_969_" style="fill:#FF9811;" d="M170,195c-43.451,0-79.368,32.779-84.38,74.904
		c6.664,5.656,13.225,10.882,19.631,15.617c-0.153-1.822-0.251-3.66-0.251-5.522c0-35.841,29.159-65,65-65s65,29.159,65,65
		c0,1.861-0.098,3.699-0.251,5.522c6.406-4.735,12.967-9.961,19.631-15.617C249.368,227.779,213.451,195,170,195z"/>
	<path id="XMLID_970_" style="fill:#FF5023;" d="M170,105v20c63.411,0,115,51.589,115,115c0,0.548-0.014,1.093-0.021,1.639
		c6.272-6.242,12.561-12.777,18.83-19.547C295.022,156.088,238.368,105,170,105z"/>
	<path id="XMLID_971_" style="fill:#FF5023;" d="M170,195v20c35.841,0,65,29.159,65,65c0,1.861-0.098,3.699-0.251,5.522
		c6.406-4.735,12.967-9.961,19.631-15.617C249.368,227.779,213.451,195,170,195z"/>
</g>
</svg>