<?xml version="1.0" encoding="iso-8859-1"?>
<!-- Uploaded to: SVG Repo, www.svgrepo.com, Generator: SVG Repo Mixer Tools -->
<svg version="1.1" id="Layer_1" xmlns="http://www.w3.org/2000/svg" xmlns:xlink="http://www.w3.org/1999/xlink" 
	 viewBox="0 0 512.001 512.001" xml:space="preserve">
<path style="fill:#E7ECED;" d="M153.647,207.831c12.557,0,22.749,10.192,22.749,22.749s-10.192,22.749-22.749,22.749
	c-12.557,0-22.749-10.192-22.749-22.749C130.897,218.023,141.089,207.831,153.647,207.831z"/>
<g>
	<path style="fill:#F99B21;" d="M394.794,303.38c4.55,36.4-63.699,127.398-63.699,127.398l-72.708-59.058
		c8.827-2.093,17.926-4.914,27.299-8.463c24.479-9.373,51.051-23.751,79.715-44.59c9.919-7.189,20.111-15.197,30.576-24.024
		c1.001,2.184,2.184,4.459,3.367,6.825L394.794,303.38z"/>
	<path style="fill:#F99B21;" d="M394.794,207.831l2.547,1.274c-0.637,1.274-1.183,2.458-1.729,3.64
		c-27.936-23.477-53.962-41.041-78.168-53.871c-19.747-10.374-38.31-17.562-55.692-22.112l69.341-56.328
		C331.095,80.432,399.344,171.432,394.794,207.831z"/>
</g>
<path style="fill:#FFD311;" d="M397.341,209.105c17.107-35.126,49.868-78.623,106.651-78.623v245.697
	c-54.782,0-87.086-40.313-104.649-74.71c-1.183-2.365-2.365-4.641-3.367-6.825c-10.465,8.827-20.657,16.835-30.576,24.024
	c-28.664,20.839-55.237,35.217-79.715,44.59c-9.373,3.549-18.472,6.37-27.299,8.463c-115.204,28.027-178.63-60.97-200.562-100.19
	H26.248c-10.01,0-18.2-8.19-18.2-18.199c0-10.009,8.19-18.2,18.2-18.2h32.122c19.292-34.125,68.613-103.102,154.425-104.467
	c15.106-0.273,31.486,1.547,48.957,6.097c17.38,4.55,35.945,11.739,55.692,22.112c24.206,12.831,50.232,30.394,78.168,53.871
	C396.159,211.563,396.705,210.379,397.341,209.105z M176.397,230.581c0-12.557-10.192-22.749-22.749-22.749
	c-12.557,0-22.749,10.192-22.749,22.749s10.192,22.749,22.749,22.749C166.205,253.331,176.397,243.139,176.397,230.581z"/>
<path style="fill:#FBC319;" d="M139.548,150.537c-41.791,23.341-68.258,61.742-81.176,84.593H26.248c-10.01,0-18.2,8.189-18.2,18.2
	c0,10.01,8.19,18.199,18.2,18.199h31.577c21.932,39.221,85.357,128.217,200.562,100.189c8.827-2.094,17.926-4.914,27.299-8.463
	c16.523-6.327,34.023-15.001,52.454-26.336C245.821,310.128,171.908,240.333,139.548,150.537z M153.647,253.331
	c-12.557,0-22.749-10.192-22.749-22.749c0-12.557,10.192-22.749,22.749-22.749c12.557,0,22.749,10.192,22.749,22.749
	C176.397,243.139,166.205,253.331,153.647,253.331z"/>
<path d="M153.626,200.199c-16.97,0-30.778,13.807-30.778,30.777s13.807,30.778,30.778,30.778c16.969,0,30.777-13.807,30.777-30.778
	C184.403,214.005,170.596,200.199,153.626,200.199z M153.626,245.698c-8.119,0-14.723-6.604-14.723-14.723
	c0-8.118,6.604-14.722,14.723-14.722c8.118,0,14.722,6.604,14.722,14.722C168.348,239.094,161.743,245.698,153.626,245.698z"/>
<path d="M146.738,290.349l-6.761,4.326l-6.807,4.255c1.025,1.641,26.089,40.173,111.457,40.173v-16.055
	C169.039,323.048,146.952,290.676,146.738,290.349z"/>
<path d="M503.972,122.849c-27.459,0-52.186,9.464-73.494,28.128c-11.201,9.812-21.312,22.04-30.193,36.446
	c-11.599-42.242-56.764-103.38-62.789-111.412l-5.007-6.676l-72.728,59.079c-15.986-3.831-31.816-5.662-47.113-5.382
	c-9.707,0.154-19.367,1.154-28.71,2.973l3.067,15.76c8.419-1.639,17.133-2.541,25.916-2.68c15.109-0.278,30.862,1.691,46.779,5.837
	c1.113,0.291,3.905,1.067,3.905,1.067c16.203,4.58,33.028,11.424,50.06,20.372c24.777,13.134,50.603,30.94,76.764,52.923l8.05,6.766
	c0,0,5.423-11.764,6.06-13.036c9.068-18.619,22.439-39.193,41.356-53.935v94.645h16.055V148.832
	c10.056-5.109,21.338-8.574,33.994-9.605V368.21c-27.289-2.296-62.516-17.204-89.442-69.939l-7.649-16.179l-8.075,6.81
	c-10.27,8.663-20.401,16.624-30.121,23.667c-26.555,19.306-52.752,33.971-77.836,43.576c-9.01,3.411-17.862,6.156-26.356,8.17
	c-47.428,11.54-90.726,3.599-128.684-23.602c-30.78-22.059-51.234-51.713-62.972-72.706l-2.297-4.11H26.228
	c-5.609,0-10.173-4.563-10.173-10.172s4.564-10.173,10.173-10.173h36.806l2.304-4.077c14.797-26.174,47.554-72.924,100.681-91.942
	l-5.412-15.117c-55.312,19.802-90.003,66.412-106.892,95.081H26.228C11.765,227.498,0,239.263,0,253.726
	c0,14.462,11.765,26.227,26.228,26.227h26.915c12.846,22.066,34.082,51.446,65.288,73.811c29.533,21.164,61.932,31.787,96.73,31.785
	c13.399,0,27.162-1.595,41.245-4.75l76.083,61.868l5.007-6.675c6.179-8.238,53.535-72.34,63.62-114.622
	c32.28,51.787,73.099,63.233,102.857,63.233h8.028V122.849H503.972z M278.587,133.816l51.005-41.442
	c17.832,24.754,49.656,73.422,56.195,102.463c-21.927-17.207-43.601-31.531-64.628-42.676
	C306.788,144.614,292.529,138.473,278.587,133.816z M329.591,419.627l-54.103-43.946c4.303-1.362,8.657-2.869,13.049-4.532
	c26.427-10.119,53.87-25.458,81.554-45.586c5.381-3.899,10.886-8.08,16.462-12.485C382.368,341.422,348.288,393.671,329.591,419.627
	z"/>
<g>
	<rect x="226.423" y="241.152" style="fill:#FFFFFF;" width="31.849" height="16.055"/>
	<rect x="253.728" y="213.847" style="fill:#FFFFFF;" width="31.851" height="16.055"/>
</g>
<rect x="326.522" y="263.897" width="31.849" height="16.055"/>
<rect x="440.269" y="272.995" style="fill:#FFFFFF;" width="27.299" height="16.055"/>
</svg>