<!DOCTYPE svg PUBLIC "-//W3C//DTD SVG 1.1//EN" "http://www.w3.org/Graphics/SVG/1.1/DTD/svg11.dtd">
<!-- Uploaded to: SVG Repo, www.svgrepo.com, Transformed by: SVG Repo Mixer Tools -->
<svg width="800px" height="800px" viewBox="0 0 1024 1024" class="icon" version="1.1" xmlns="http://www.w3.org/2000/svg" fill="#000000" transform="rotate(90)">
<g id="SVGRepo_bgCarrier" stroke-width="0"/>
<g id="SVGRepo_tracerCarrier" stroke-linecap="round" stroke-linejoin="round"/>
<g id="SVGRepo_iconCarrier">
<path d="M624.618667 790.997333C615.829333 767.658667 618.666667 746.666667 618.666667 746.666667s154.218667 114.624 275.392-40.96a187.050667 187.050667 0 0 1-10.816 20.8c12.394667-20.330667 20.458667-42.666667 23.914666-64.448 4.672-28.117333 3.114667-55.253333-1.706666-80.64a286.72 286.72 0 0 0-9.749334-37.034667 328.085333 328.085333 0 0 0-6.762666-18.325333c-1.941333-4.416-5.184-11.797333-8.234667-17.536-12.032-22.677333-25.664-40.661333-35.968-58.176a153.770667 153.770667 0 0 1-12.586667-25.856 58.88 58.88 0 0 1-4.16-24.469334c0.682667-17.6 8.341333-35.114667 20.245334-54.165333 5.76-9.749333 11.861333-20.202667 16.448-32.085333 3.584-10.538667 8.234667-20.842667 10.709333-34.197334 3.669333-26.218667-5.653333-48.896-14.741333-69.397333C851.242667 189.504 839.744 170.368 832 149.333333c4.522667 22.016 13.162667 43.114667 19.178667 64.384 6.058667 20.949333 10.325333 43.328 4.501333 61.461334-2.816 8.426667-8.810667 18.069333-14.144 27.968-4.949333 8.384-11.456 16.448-18.56 24.96-14.485333 16.661333-30.613333 38.826667-36.181333 65.962666a103.381333 103.381333 0 0 0-0.170667 41.962667c2.346667 13.098667 6.378667 25.450667 10.858667 36.885333 8.981333 22.805333 19.434667 42.752 25.408 60.992 10.965333 35.328 12.928 78.421333 1.856 109.013334-5.397333 15.594667-13.866667 27.904-24.384 37.056-10.88 9.365333-24.490667 16.213333-38.058667 19.498666-27.072 6.698667-55.36-1.621333-74.304-18.496a79.573333 79.573333 0 0 1-20.949333-29.589333c-5.354667-12.629333-6.336-22.634667-6.336-36.842667 0.128-27.925333 11.114667-66.133333 21.034666-114.794666l0.597334-2.965334a85.802667 85.802667 0 0 0-82.986667-102.464 85.802667 85.802667 0 0 0-87.04 84.586667c-0.554667 39.786667-9.514667 90.261333 0.106667 151.914667 4.778667 30.165333 17.045333 63.936 34.709333 89.706666 18.816 28.373333 50.197333 47.466667 70.506667 66.965334 1.514667 1.450667 0 0 6.976 3.498666z" fill="#673AB7"/>
<path d="M704 234.666667c0 106.048-85.952 362.666667-192 362.666666s-192-256.618667-192-362.666666 85.952-192 192-192 192 85.952 192 192z" fill="#673AB7"/>
<path d="M520.384 545.365333a2988.736 2988.736 0 0 1-3.648-66.218666 85.546667 85.546667 0 0 0-100.608-80.64 85.546667 85.546667 0 0 0-69.12 99.328l0.298667 1.706666c8.021333 44.821333 21.418667 94.997333 22.357333 118.037334l0.106667 5.504v0.170666c0.192-1.301333-0.405333 3.114667 0.426666-2.837333l-0.021333 0.533333-0.064 1.045334-0.128 2.133333-0.277333 4.202667c-0.704 5.504 0.768 1.536 0.021333 5.76a53.098667 53.098667 0 0 1-3.84 15.573333c-4.309333 10.752-12.416 22.186667-23.04 31.701333-5.546667 4.714667-10.56 9.045333-17.578667 12.330667-1.493333 1.28-8.64 4.010667-14.869333 5.098667-13.290667 2.688-30.464 2.154667-47.232-1.109334l-6.229333-1.322666-3.050667-0.746667-1.514667-0.384-0.384-0.106667c0.725333 0.298667-1.92-0.704 1.6 0.661334l-0.256-0.085334-1.002666-0.341333-7.274667-2.325333c-0.896-0.384-1.514667-0.298667-2.816-0.789334a51.84 51.84 0 0 1-15.04-8.768c-9.28-7.594667-17.749333-21.013333-23.744-38.336-12.245333-31.189333-9.258667-70.229333 2.410667-109.952l2.090666-7.018666 2.496-7.210667c1.450667-4.16 3.562667-9.258667 5.632-14.037333l13.845334-31.466667c9.152-21.994667 18.453333-49.450667 12.928-78.784-5.098667-27.498667-20.672-50.090667-35.498667-67.114667-7.189333-8.597333-13.824-16.661333-18.986667-25.173333-5.077333-9.045333-11.477333-19.925333-14.613333-28.032-6.634667-18.069333-3.818667-40.576 1.173333-61.909333 4.906667-21.568 12.608-43.029333 17.066667-65.109334-7.744 21.12-18.432 40.789333-26.88 62.037334-8.192 21.034667-15.957333 44.352-11.178667 70.314666 3.178667 13.482667 7.104 22.677333 11.2 34.026667 4.736 11.712 10.944 22.122667 16.682667 31.829333 11.776 18.773333 18.986667 36.714667 19.306667 54.144 0.405333 15.850667-7.36 32.469333-18.325334 50.005334l-18.048 27.818666c-3.221333 5.098667-6.293333 9.984-9.6 15.978667l-4.394666 8.149333-4.16 8.576c-10.474667 22.037333-19.370667 45.653333-24.64 71.466667a225.685333 225.685333 0 0 0-4.608 40.213333c-0.128 6.762667 0.042667 13.973333 0.832 22.122667l0.853333 8.64 1.749333 10.901333c2.602667 14.890667 7.104 30.784 14.037334 46.592-0.810667-1.834667-1.664-3.648-2.389334-5.461333C253.290667 858.133333 408.298667 746.666667 408.298667 746.666667s1.770667 22.293333-6.677334 45.333333c3.584-1.792 7.274667-3.413333 10.688-5.376a223.381333 223.381333 0 0 0 70.954667-63.253333 197.482667 197.482667 0 0 0 24.448-45.248c2.986667-6.378667 6.741333-21.376 8.149333-26.837334l1.045334-4.096 0.512-2.069333 0.256-1.002667 0.128-0.512 0.512-3.712 1.685333-11.242666c2.026667-15.274667 2.496-31.402667 2.176-45.354667-0.298667-14.037333-1.088-26.304-1.792-37.930667z" fill="#673AB7"/>
<path d="M648.384 618.837333c-1.962667 4.565333-4.842667 12.010667-5.674667 13.205334a50.24 50.24 0 0 0-4.16 9.749333 212.8 212.8 0 0 0-7.210666 25.258667 367.296 367.296 0 0 0-8 56.917333 443.008 443.008 0 0 0-0.064 59.498667l0.234666 3.690666 0.042667 0.448v0.106667c0.085333 0.341333-0.661333-2.325333-0.341333-1.152l0.021333 0.277333 0.149333 1.045334 0.256 2.090666 1.045334 8.213334c0.448 3.626667 0.576 7.210667 1.578666 11.669333 1.578667 8.490667 3.776 16.96 6.912 25.088 11.797333 32.832 37.866667 62.357333 74.005334 81.344 35.968 19.093333 80.085333 27.754667 124.842666 26.005333-41.984 15.552-89.344 22.656-137.962666 14.634667-48.234667-7.701333-98.218667-33.536-133.098667-76.48a234.666667 234.666667 0 0 1-23.445333-33.941333 235.264 235.264 0 0 1-9.984-19.456l-3.690667-7.744-0.896-1.898667-0.448-0.938667-0.106667-0.256-0.469333-1.536-0.213333-0.533333-1.792-4.373333a555.157333 555.157333 0 0 1-23.722667-71.210667 512.32 512.32 0 0 1-14.101333-75.754667 385.514667 385.514667 0 0 1-2.261334-41.002666c0-6.912 0.106667-14.250667 0.981334-23.082667l1.514666-19.242667 0.106667-1.322666a86.570667 86.570667 0 0 1 172.608 13.653333c-0.789333 9.429333-3.2 18.730667-6.656 27.029333z" fill="#673AB7"/>
<path d="M543.509333 579.413333l1.536 19.242667c0.853333 8.832 0.981333 16.170667 0.96 23.082667 0 14.165333-0.810667 27.797333-2.24 41.002666a509.546667 509.546667 0 0 1-14.101333 75.754667 558.485333 558.485333 0 0 1-23.722667 71.210667l-1.792 4.373333-0.213333 0.533333-0.469333 1.536-0.106667 0.256-0.448 0.938667-0.896 1.898667-3.690667 7.744c-3.221333 6.826667-6.549333 13.76-9.984 19.456a231.210667 231.210667 0 0 1-23.424 33.941333c-34.88 42.944-84.885333 68.778667-133.12 76.48-48.618667 8.021333-95.978667 0.938667-137.941333-14.634667 44.757333 1.749333 88.874667-6.912 124.842667-26.005333 36.096-18.986667 62.208-48.490667 74.005333-81.344 3.136-8.128 5.333333-16.576 6.912-25.088 0.981333-4.458667 1.130667-8.042667 1.578667-11.669333l1.045333-8.213334 0.256-2.090666 0.128-1.045334 0.021333-0.277333c0.32-1.194667-0.426667 1.472-0.341333 1.152v-0.106667l0.021333-0.448 0.234667-3.690666c1.344-19.669333 1.258667-39.829333-0.064-59.498667a367.296 367.296 0 0 0-8-56.917333c-2.005333-8.96-4.437333-17.450667-7.210667-25.258667a51.605333 51.605333 0 0 0-4.16-9.749333c-0.853333-1.216-3.712-8.64-5.653333-13.205334a86.549333 86.549333 0 1 1 159.296-67.776c3.733333 8.725333 5.888 17.706667 6.656 26.688l0.085333 1.728z" fill="#673AB7"/>
<path d="M704 394.666667c0 74.666667-141.205333 202.666667-170.666667 202.666666h-42.666666c-29.461333 0-170.666667-128-170.666667-202.666666a53.333333 53.333333 0 0 1 53.333333-53.333334h277.333334a53.333333 53.333333 0 0 1 53.333333 53.333334z" fill="#673AB7"/>
<path d="M533.333333 128m-42.666666 0a42.666667 42.666667 0 1 0 85.333333 0 42.666667 42.666667 0 1 0-85.333333 0Z" fill="#7E57C2"/>
<path d="M448 128m-21.333333 0a21.333333 21.333333 0 1 0 42.666666 0 21.333333 21.333333 0 1 0-42.666666 0Z" fill="#7E57C2"/>
<path d="M629.333333 181.333333m-32 0a32 32 0 1 0 64 0 32 32 0 1 0-64 0Z" fill="#7E57C2"/>
<path d="M640 256m-21.333333 0a21.333333 21.333333 0 1 0 42.666666 0 21.333333 21.333333 0 1 0-42.666666 0Z" fill="#7E57C2"/>
<path d="M490.666667 213.333333m-21.333334 0a21.333333 21.333333 0 1 0 42.666667 0 21.333333 21.333333 0 1 0-42.666667 0Z" fill="#B39DDB"/>
<path d="M394.666667 181.333333m-10.666667 0a10.666667 10.666667 0 1 0 21.333333 0 10.666667 10.666667 0 1 0-21.333333 0Z" fill="#B39DDB"/>
<path d="M565.333333 224m-10.666666 0a10.666667 10.666667 0 1 0 21.333333 0 10.666667 10.666667 0 1 0-21.333333 0Z" fill="#B39DDB"/>
<path d="M448.832 431.04c21.397333-21.397333-17.322667-17.344-38.72-38.72-21.397333-21.418667-17.344-60.117333-38.72-38.72M565.632 431.04c-21.418667-21.397333 17.322667-17.344 38.72-38.72 21.397333-21.418667 17.344-60.117333 38.72-38.72" fill="#FFEB3B"/>
<path d="M512 661.333333s-38.378667 272.32-187.541333 296.448c2.432-0.32 4.864-0.490667 7.296-0.917333 48.234667-7.701333 98.24-33.536 133.12-76.48 8.832-10.517333 16.576-21.973333 23.424-33.941333 3.456-5.717333 6.762667-12.629333 9.984-19.456l3.690666-7.744 0.896-1.898667 0.448-0.938667 0.106667-0.256 0.469333-1.536 0.213334-0.533333 1.792-4.373333c2.56-6.208 4.672-12.544 6.976-18.816 2.304 6.272 4.416 12.608 6.976 18.816l1.792 4.373333 0.213333 0.533333 0.469333 1.536 0.106667 0.256 0.448 0.938667 0.896 1.898667 3.690667 7.744c3.221333 6.826667 6.549333 13.76 9.984 19.456 6.869333 11.968 14.613333 23.424 23.445333 33.941333 34.453333 42.432 83.690667 68.074667 131.392 76.117333C549.12 926.293333 512 661.333333 512 661.333333z" fill="#311B92"/>
<path d="M434.837333 446.378667c21.397333-21.397333-17.322667-17.344-38.72-38.72-21.397333-21.418667-17.344-60.117333-38.72-38.72a54.762667 54.762667 0 1 0 77.44 77.44zM577.834667 446.165333c-22.592-22.592 18.24-18.282667 40.832-40.832 22.549333-22.592 18.261333-63.424 40.832-40.832a57.749333 57.749333 0 0 1-81.664 81.664z" fill="#FFEB3B"/>
<path d="M601.365333 417.152c3.84 5.589333 9.984 9.514667 17.301334 9.514667a21.333333 21.333333 0 0 0 21.333333-21.333334 21.056 21.056 0 0 0-9.514667-17.301333c-2.986667 6.101333-6.698667 12.181333-11.818666 17.301333-5.141333 5.12-11.221333 8.832-17.301334 11.818667zM413.461333 419.328c-6.08-2.901333-12.224-6.549333-17.365333-11.690667s-8.789333-11.285333-11.690667-17.344a20.949333 20.949333 0 0 0-9.642666 17.344 21.333333 21.333333 0 0 0 21.333333 21.333334 20.885333 20.885333 0 0 0 17.365333-9.642667z" fill="#263238"/>
<path d="M623.168 786.496l0.064 0.149333c-0.106667-0.298667-0.128-0.426667-0.064-0.149333zM622.464 749.290667c-0.149333 11.434667 0.021333 22.869333 0.789333 34.176l0.256 3.690666 0.021334 0.448c0.384 1.152 0.661333 2.24 1.109333 3.413334 171.84 82.773333 264.704-66.112 269.44-85.290667-110.058667 141.248-247.317333 59.754667-271.616 43.562667zM401.344 792.128l0.277333-0.128 0.512-1.6 0.042667-0.448 0.256-2.090667 0.128-1.045333 0.021333-0.277333c0.32-1.194667-0.426667 1.472-0.341333 1.173333v-0.128l0.021333-0.448 0.234667-3.712c0.768-11.072 0.96-22.293333 0.832-33.514667-27.072 17.152-162.666667 92.437333-270.954667-43.242666 61.397333 135.104 212.970667 115.114667 268.970667 85.461333z" fill="#FF80AB"/>
</g>
</svg>