<?xml version="1.0" encoding="iso-8859-1"?>
<!-- Uploaded to: SVG Repo, www.svgrepo.com, Generator: SVG Repo Mixer Tools -->
<svg version="1.1" id="Layer_1" xmlns="http://www.w3.org/2000/svg" xmlns:xlink="http://www.w3.org/1999/xlink" 
	 viewBox="0 0 511.998 511.998" xml:space="preserve">
<g>
	<path style="fill:#E7ECED;" d="M122.567,228.257c13.675,0,24.773,11.098,24.773,24.773s-11.098,24.773-24.773,24.773
		s-24.773-11.098-24.773-24.773C97.794,239.355,108.892,228.257,122.567,228.257z"/>
	<path style="fill:#E7ECED;" d="M271.206,277.803v49.546c-64.41,0-69.365-49.546-69.365-49.546s4.955-49.546,69.365-49.546V277.803z
		"/>
	<path style="fill:#E7ECED;" d="M355.434,352.122v79.274c0,0-87.994,4.856-89.085-33.89c26.656-10.207,55.591-25.864,86.805-48.555
		L355.434,352.122z"/>
	<path style="fill:#E7ECED;" d="M300.933,79.618v95.327c-43.106-22.692-81.058-31.313-113.956-30.719v-0.198
		c0,0-4.955-64.41,54.501-64.41C241.478,79.618,300.933,79.618,300.933,79.618z"/>
</g>
<path style="fill:#F25B22;" d="M504.073,411.578c-63.617,0-99.389-49.943-117.622-88.787c-11.396,9.612-22.493,18.333-33.295,26.16
	c-31.215,22.692-60.15,38.348-86.805,48.555C85.705,466.178,8.611,278.397,8.611,278.397s54.104-132.189,178.366-134.171
	c32.899-0.595,70.852,8.027,113.956,30.719c26.359,13.973,54.699,33.097,85.12,58.663c18.134-38.943,54.005-89.579,118.018-89.579
	v267.549H504.073z M271.206,327.349v-49.546v-49.546c-64.41,0-69.365,49.546-69.365,49.546S206.796,327.349,271.206,327.349z
	 M147.34,253.03c0-13.675-11.098-24.773-24.773-24.773s-24.773,11.098-24.773,24.773s11.098,24.773,24.773,24.773
	S147.34,266.705,147.34,253.03z"/>
<path style="fill:#DB5321;" d="M114.066,162.14C41.272,198.685,8.611,278.397,8.611,278.397s77.094,187.78,257.74,119.109
	c10.11-3.87,20.55-8.535,31.314-14.059C207.942,340.719,139.869,260.065,114.066,162.14z M122.567,277.803
	c-13.675,0-24.773-11.098-24.773-24.773c0-13.675,11.098-24.773,24.773-24.773s24.773,11.098,24.773,24.773
	C147.34,266.705,136.242,277.803,122.567,277.803z"/>
<path d="M193.832,278.195l0.079,0.791c0.059,0.597,1.58,14.753,12.079,28.752c17.327,23.103,45.018,27.953,65.195,27.953h7.949
	V220.7h-7.949c-20.178,0-47.868,4.85-65.195,27.953c-10.5,13.999-12.019,28.155-12.079,28.752L193.832,278.195z M263.237,236.886
	v82.618c-45.226-3.386-52.456-35.515-53.393-41.309C210.781,272.401,218.011,240.272,263.237,236.886z"/>
<path d="M504.051,136.471c-30.631,0-58.074,10.854-81.567,32.259c-14.99,13.658-28.132,31.361-39.15,52.721
	c-26.731-21.751-53.167-39.604-78.717-53.148c-38.166-20.092-75.026-30.693-109.705-31.592c0.485-9.1,2.893-25.025,13.186-36.14
	c7.75-8.368,18.974-12.612,33.361-12.612h51.507v46.552h15.897V72.062h-67.404c-18.995,0-34.144,5.957-45.024,17.707
	c-14.023,15.144-16.958,35.915-17.442,47.201c-34.406,2.032-66.604,13.827-95.812,35.132l9.369,12.844
	c28.713-20.944,60.521-31.838,94.554-32.38c34.299-0.627,71.362,9.407,110.089,29.793c27.029,14.328,55.199,33.749,83.729,57.725
	l7.941,6.675l4.378-9.404c30.119-64.681,71.177-82.305,102.865-84.689v58.125h-56.46v15.897h56.46v43.559h-56.46v15.897h56.46
	v43.558h-56.46v15.897h56.46v58.135c-53.735-3.918-85.277-47.28-102.478-83.929l-4.401-9.378l-7.919,6.68
	c-11.193,9.44-22.239,18.122-32.844,25.807c-28.977,21.066-57.566,37.068-84.956,47.554
	c-39.562,15.039-77.069,18.447-111.484,10.138c-27.512-6.646-53.268-20.783-76.552-42.023
	c-34.244-31.236-53.195-68.995-58.183-79.798c4.936-10.719,23.559-47.917,57.217-78.979l-10.781-11.682
	C21.447,227.141,2.042,273.813,1.238,275.78L0,278.793l1.237,3.015c0.815,1.984,20.438,49.036,63.11,88.147
	c25.3,23.189,53.434,38.674,83.619,46.027c13.566,3.303,27.532,4.954,41.849,4.954c22.726,0,46.335-4.17,70.612-12.469
	c1.749,4.523,4.602,8.629,8.557,12.268c10.391,9.561,28.343,15.642,53.355,18.075c9.273,0.903,17.755,1.127,23.868,1.127
	c5.7,0,9.34-0.195,9.643-0.211l7.511-0.414v-57.069h-15.897v41.825c-19.123,0.114-53.872-2.294-67.717-15.032
	c-2.088-1.92-3.531-3.945-4.417-6.161c26.805-10.957,54.518-26.776,82.467-47.096c8.437-6.115,17.14-12.835,25.965-20.051
	c11.033,21.216,24.166,38.781,39.126,52.309c23.39,21.154,50.697,31.88,81.161,31.88h7.949V136.471H504.051z"/>
<path d="M122.547,220.7c-18.042,0-32.722,14.679-32.722,32.722s14.679,32.722,32.722,32.722s32.722-14.679,32.722-32.722
	S140.589,220.7,122.547,220.7z M122.547,270.246c-9.277,0-16.825-7.547-16.825-16.824c0-9.278,7.548-16.824,16.825-16.824
	s16.825,7.547,16.825,16.824C139.372,262.7,131.824,270.246,122.547,270.246z"/>
<g>
	<rect x="122.546" y="329.705" style="fill:#FFFFFF;" width="29.728" height="15.897"/>
	<rect x="152.274" y="359.433" style="fill:#FFFFFF;" width="29.728" height="15.897"/>
</g>
<rect x="172.092" y="190.976" width="29.728" height="15.897"/>
<rect x="320.731" y="270.25" style="fill:#FFFFFF;" width="29.728" height="15.897"/>
<rect x="246.417" y="106.742" width="29.728" height="15.897"/>
</svg>