<?xml version="1.0" encoding="iso-8859-1"?>
<!-- Uploaded to: SVG Repo, www.svgrepo.com, Generator: SVG Repo Mixer Tools -->
<svg height="800px" width="800px" version="1.1" id="Layer_1" xmlns="http://www.w3.org/2000/svg" xmlns:xlink="http://www.w3.org/1999/xlink" 
	 viewBox="0 0 340 340" xml:space="preserve">
<g id="XMLID_505_">
	<g id="XMLID_506_">
		<g id="XMLID_507_">
			<path id="XMLID_508_" style="fill:#802812;" d="M230,230h-20c0-24.813,20.186-45,45-45h40v20h-40
				C241.215,205,230,216.215,230,230z"/>
		</g>
	</g>
	<g id="XMLID_509_">
		<g id="XMLID_510_">
			<path id="XMLID_511_" style="fill:#FF5023;" d="M149.118,160H65c-35.841,0-65-29.159-65-65s29.159-65,65-65h125v20H65
				c-24.813,0-45,20.187-45,45s20.187,45,45,45h84.118V160z"/>
		</g>
	</g>
	<g id="XMLID_512_">
		<g id="XMLID_515_">
			<path id="XMLID_516_" style="fill:#FF5023;" d="M230,90h-30v80h20c27.574,0,40,20,40,40s-12.426,40-40,40l-7,23.5l7,26.5h10
				c60.75,0,110-49.25,110-110S290.75,90,230,90z"/>
		</g>
	</g>
	<g id="XMLID_517_">
		<g id="XMLID_518_">
			<path id="XMLID_519_" style="fill:#FF9811;" d="M220,90v79.999c0,0-120,30.001-170-59.999C50,110,160,60,220,90z"/>
		</g>
	</g>
	<g id="XMLID_520_">
		<path id="XMLID_521_" style="fill:#FF9811;" d="M180,240c-10,0-20,8.954-20,20c0,5.981,2.64,11.335,6.802,15
			c-4.162,3.665-6.802,9.019-6.802,15c0,11.046,10,20,20,20s40-10,40-10v-10v-30v-10C220,250,190,240,180,240z"/>
	</g>
	<g id="XMLID_522_">
		<circle id="XMLID_523_" style="fill:#802812;" cx="130" cy="130" r="10"/>
	</g>
</g>
</svg>