<?xml version="1.0" encoding="iso-8859-1"?>
<!-- Uploaded to: SVG Repo, www.svgrepo.com, Generator: SVG Repo Mixer Tools -->
<svg version="1.1" id="Layer_1" xmlns="http://www.w3.org/2000/svg" xmlns:xlink="http://www.w3.org/1999/xlink" 
	 viewBox="0 0 512 512" xml:space="preserve">
<g>
	<path style="fill:#E6E7E8;" d="M474.667,256l26.562-1.812c0.105,0.645,0.105,1.167,0.105,1.812
		c0,50.031-129.49,50.135-162.344,82.99c-32.854,32.853-32.959,162.343-82.99,162.343c-0.645,0-1.167,0-1.812-0.105L256,474.667
		v-21.333V432v-21.333v-21.333V368v-21.333v-21.333V304c26.562,0,48-21.438,48-48h21.333h21.333H368h21.333h21.333H432h21.333
		H474.667z"/>
	<path style="fill:#E6E7E8;" d="M10.667,256c0-50.021,129.604-50.135,162.354-82.979C205.865,140.271,205.979,10.667,256,10.667
		c0.645,0,1.167,0,1.812,0.105L256,37.333v21.333V80v21.333v21.333V144v21.333v21.333V208c26.562,0,48,21.438,48,48
		c0,26.562-21.438,48-48,48c-26.562,0-48-21.438-48-48h-21.333h-21.333H144h-21.333h-21.333H80H58.667H37.333l-26.562,1.812
		C10.667,257.167,10.667,256.645,10.667,256z"/>
</g>
<g>
	<path style="fill:#F4661E;" d="M256,453.333v21.333l-1.812,26.562c-48.208-3.093-48.75-129.812-81.167-162.24
		c-32.334-32.427-159.156-32.958-162.25-81.178L37.333,256h21.333H80h21.333h21.333H144h21.333h21.333H208c0,26.562,21.438,48,48,48
		v21.333v21.333V368v21.333v21.333V432V453.333z"/>
	<path style="fill:#F4661E;" d="M501.229,254.188L474.667,256h-21.333H432h-21.333h-21.333H368h-21.333h-21.333H304
		c0-26.562-21.438-48-48-48v-21.333v-21.333V144v-21.333v-21.333V80V58.667V37.333l1.812-26.562
		c48.219,3.093,48.75,129.917,81.178,162.25C371.417,205.438,498.135,205.979,501.229,254.188z"/>
</g>
<g>
	<path style="fill:#231F20;" d="M511.843,253.068c-2.665-35.537-50.48-48.387-96.729-60.816
		c-28.106-7.552-57.169-15.362-68.595-26.784c-11.412-11.38-19.223-40.455-26.778-68.573C307.315,50.642,294.466,2.82,258.93,0.157
		C257.715,0,256.739,0,256,0c-17.714,0-31.769,11.138-42.965,34.051c-8.646,17.693-14.804,40.625-20.759,62.802
		c-7.553,28.134-15.364,57.226-26.807,68.637c-11.389,11.421-40.48,19.232-68.614,26.785c-22.177,5.955-45.109,12.112-62.802,20.759
		C11.138,224.231,0,238.286,0,256c0,0.739,0,1.715,0.157,2.932c2.663,35.536,50.485,48.384,96.738,60.812
		c28.117,7.554,57.193,15.364,68.582,26.787c11.412,11.415,19.222,40.479,26.775,68.585c12.428,46.247,25.279,94.064,60.816,96.729
		C254.285,512,255.261,512,256,512c17.718,0,31.776-11.135,42.975-34.038c8.647-17.687,14.806-40.617,20.763-62.791
		c7.553-28.125,15.364-57.207,26.795-68.638c11.43-11.43,40.512-19.242,68.638-26.795c22.175-5.956,45.104-12.114,62.791-20.763
		C500.865,287.776,512,273.718,512,256C512,255.261,512,254.285,511.843,253.068z M490.667,256c0,21.371-43.049,32.933-81.03,43.135
		c-32.255,8.662-62.722,16.846-78.19,32.313c-15.467,15.468-23.65,45.934-32.313,78.19c-10.201,37.981-21.763,81.029-43.134,81.029
		c-0.114,0.001-0.221,0.005-0.325,0c-0.267-0.037-0.535-0.064-0.804-0.082c-20.603-1.322-31.979-43.655-42.016-81.005
		c-8.662-32.234-16.844-62.679-32.282-78.121c-15.422-15.467-45.889-23.652-78.144-32.318
		c-37.354-10.035-79.693-21.41-81.014-42.012c-0.018-0.269-0.045-0.538-0.082-0.804c-0.001-0.105,0-0.211,0-0.325
		c0-21.358,43.06-32.919,81.052-43.121c32.273-8.666,62.756-16.85,78.166-32.305c15.477-15.433,23.662-45.916,32.327-78.189
		C223.081,64.394,234.642,21.333,256,21.333c0.115,0.001,0.223-0.002,0.325,0c0.267,0.037,0.535,0.064,0.804,0.082
		c20.602,1.322,31.977,43.661,42.012,81.014c8.666,32.255,16.851,62.722,32.307,78.134c15.452,15.446,45.898,23.628,78.131,32.291
		c37.35,10.036,79.683,21.412,81.005,42.016c0.018,0.269,0.045,0.538,0.082,0.804C490.668,255.779,490.667,255.887,490.667,256z"/>
	<path style="fill:#231F20;" d="M256,197.333v21.333c20.586,0,37.333,16.748,37.333,37.333c0,20.586-16.748,37.333-37.333,37.333
		c-20.586,0-37.333-16.748-37.333-37.333h-21.333c0,32.349,26.318,58.667,58.667,58.667s58.667-26.318,58.667-58.667
		S288.349,197.333,256,197.333z"/>
	<rect x="245.333" y="165.333" style="fill:#231F20;" width="21.333" height="21.333"/>
	<rect x="245.333" y="122.667" style="fill:#231F20;" width="21.333" height="21.333"/>
	<rect x="245.333" y="80" style="fill:#231F20;" width="21.333" height="21.333"/>
	<rect x="245.333" y="37.333" style="fill:#231F20;" width="21.333" height="21.333"/>
	<rect x="245.333" y="453.333" style="fill:#231F20;" width="21.333" height="21.333"/>
	<rect x="245.333" y="410.667" style="fill:#231F20;" width="21.333" height="21.333"/>
	<rect x="245.333" y="368" style="fill:#231F20;" width="21.333" height="21.333"/>
	<rect x="245.333" y="325.333" style="fill:#231F20;" width="21.333" height="21.333"/>
	<rect x="325.333" y="245.333" style="fill:#231F20;" width="21.333" height="21.333"/>
	<rect x="368" y="245.333" style="fill:#231F20;" width="21.333" height="21.333"/>
	<rect x="410.667" y="245.333" style="fill:#231F20;" width="21.333" height="21.333"/>
	<rect x="453.333" y="245.333" style="fill:#231F20;" width="21.333" height="21.333"/>
	<rect x="37.333" y="245.333" style="fill:#231F20;" width="21.333" height="21.333"/>
	<rect x="80" y="245.333" style="fill:#231F20;" width="21.333" height="21.333"/>
	<rect x="122.667" y="245.333" style="fill:#231F20;" width="21.333" height="21.333"/>
	<rect x="165.333" y="245.333" style="fill:#231F20;" width="21.333" height="21.333"/>
	<rect x="245.333" y="245.333" style="fill:#231F20;" width="21.333" height="21.333"/>
</g>
</svg>