<?xml version="1.0" encoding="iso-8859-1"?>
<!-- Uploaded to: SVG Repo, www.svgrepo.com, Generator: SVG Repo Mixer Tools -->
<svg height="800px" width="800px" version="1.1" id="Layer_1" xmlns="http://www.w3.org/2000/svg" xmlns:xlink="http://www.w3.org/1999/xlink" 
	 viewBox="0 0 512 512" xml:space="preserve">
<path style="fill:#F0DF9E;" d="M442.085,240.868c5.818,3.367,8.738,9.25,8.738,15.132c0,5.882-2.92,11.765-8.738,15.132
	c-12.777,7.374-21.633,19.938-24.606,34.399c-4.018,19.618-10.39,38.395-18.787,55.999
	c-72.186,82.054-163.767,82.672-272.451,54.465l-0.277-0.107c12.713-35.092,32.054-78.825,38.682-126.971h0.011
	c1.481-10.763,2.334-21.76,2.334-32.917c0-11.157-0.853-22.154-2.334-32.917h-0.011c-6.586-47.804-25.693-91.261-38.416-126.224
	h0.011c108.684-28.218,200.84-27.227,273.026,54.837h0.011c8.11,17.253,14.268,35.603,18.201,54.774
	C420.452,220.93,429.307,233.494,442.085,240.868z M390.774,255.999c0-14.45-11.722-26.172-26.172-26.172
	c-14.449,0-26.172,11.722-26.172,26.172s11.722,26.172,26.172,26.172C379.052,282.171,390.774,270.45,390.774,255.999z"/>
<path style="fill:#F0C419;" d="M399.278,151.695h-0.011c-72.186-82.065-164.342-83.056-273.026-54.837h-0.011
	c-19.192-52.76-23.85-86.21,50.926-86.21C275.366,10.648,360.084,68.352,399.278,151.695z"/>
<path style="fill:#FFF8DB;" d="M364.602,229.828c14.451,0,26.172,11.722,26.172,26.172c0,14.449-11.722,26.172-26.172,26.172
	c-14.449,0-26.172-11.722-26.172-26.172C338.43,241.55,350.152,229.828,364.602,229.828z"/>
<g>
	<path style="fill:#F0C419;" d="M398.692,361.529c-39.439,82.682-123.816,139.822-221.535,139.822
		c-74.424,0-70.161-33.141-51.203-85.463h0.011l0.277,0.107C234.925,444.202,326.506,443.583,398.692,361.529z"/>
	<path style="fill:#F0C419;" d="M166.992,255.999H79.503c0-24.148-7.716-45.098-17.274-61.785
		c-5.573-9.718,12.489-17.903,25.085-11.349l77.333,40.217h0.011C166.139,233.845,166.992,244.842,166.992,255.999z"/>
</g>
<path style="fill:#F0DF9E;" d="M79.503,255.999h87.489c0,11.157-0.853,22.154-2.334,32.917h-0.011l-77.334,40.218
	c-12.596,6.554-30.658-1.63-25.085-11.349C71.787,301.097,79.503,280.147,79.503,255.999z"/>
<path d="M116.109,411.831c-0.059,0.142-0.114,0.285-0.166,0.43c-10.273,28.356-19.131,57.712-5.111,77.705
	C121.374,504.999,142.45,512,177.158,512c49.28,0,97.134-14.039,138.386-40.6c40.163-25.86,72.24-62.267,92.759-105.286
	c0.026-0.054,0.049-0.11,0.076-0.164c0.021-0.046,0.043-0.09,0.063-0.137c8.81-18.532,15.363-38.09,19.468-58.137
	c2.382-11.586,9.49-21.544,19.509-27.327c8.8-5.092,14.053-14.195,14.053-24.348s-5.254-19.256-14.064-24.354
	c-10.009-5.777-17.116-15.735-19.498-27.315c-4.045-19.722-10.436-38.955-18.996-57.165c-20.39-43.359-52.472-80.077-92.777-106.183
	C274.747,14.171,226.689,0,177.157,0c-34.722,0-55.802,7.007-66.338,22.052c-14.06,20.075-5.466,48.562,5.406,78.446
	c2.342,6.435,4.857,13.048,7.52,20.05c9.588,25.209,20.214,53.156,26.654,83.122l-58.17-30.252
	c-11.946-6.215-27.96-4.146-36.46,4.71c-5.807,6.05-6.871,14.243-2.779,21.378c10.528,18.379,15.866,37.385,15.866,56.493
	s-5.338,38.114-15.862,56.488c-4.094,7.141-3.03,15.333,2.777,21.383c5.196,5.412,13.199,8.291,21.364,8.29
	c5.192,0,10.451-1.164,15.094-3.579l58.174-30.253c-6.432,29.934-17.048,57.855-26.624,83.042
	C121.059,398.515,118.49,405.272,116.109,411.831z M177.157,490.704c-26.407,0-42.856-4.362-48.891-12.966
	c-6.493-9.26-3.226-26.31,4.499-49.114c40.402,9.95,75.059,14.835,106.035,14.835c13.634,0,26.559-0.946,38.945-2.82
	c25.367-3.839,48.572-11.628,69.915-23.53C303.918,463.161,242.322,490.704,177.157,490.704z M82.401,192.312l72.387,37.645
	c0.601,5.199,1.029,10.341,1.281,15.395h-66.39c-1.561-18.202-7.109-36.151-16.588-53.528
	C75.441,191.026,79.256,190.676,82.401,192.312z M82.399,319.689c-3.144,1.637-6.957,1.286-9.309,0.487
	c9.479-17.374,15.027-35.325,16.588-53.528h66.39c-0.251,5.054-0.68,10.195-1.281,15.395L82.399,319.689z M175.15,290.673
	c0.01-0.057,0.022-0.113,0.032-0.17c0.001-0.011,0.004-0.02,0.005-0.031c0.005-0.034,0.014-0.067,0.019-0.102
	c1.614-11.732,2.433-23.296,2.433-34.369s-0.819-22.637-2.433-34.369c-0.004-0.031-0.013-0.059-0.017-0.089
	c-0.001-0.005-0.002-0.011-0.003-0.016c-0.009-0.059-0.023-0.115-0.033-0.173c-5.577-40.194-19.349-76.411-31.503-108.374
	c-1.128-2.963-2.221-5.845-3.291-8.678c44.653-10.834,81.026-14.998,113.679-13.04c5.883,0.356,10.914-4.121,11.267-9.992
	c0.352-5.87-4.122-10.914-9.991-11.267c-35.385-2.121-74.446,2.383-122.275,14.152c-7.917-23.22-11.308-40.56-4.776-49.887
	c6.029-8.608,22.479-12.972,48.895-12.972c66.186,0,128.559,28.312,172.383,75.565c-7.767-4.404-15.787-8.291-24.11-11.644
	c-5.453-2.197-11.658,0.444-13.855,5.899c-2.197,5.455,0.444,11.659,5.899,13.855c27.212,10.96,51.035,28.199,72.795,52.645
	c7.52,16.274,13.173,33.417,16.779,50.997c3.607,17.543,14.437,32.66,29.702,41.47c3.09,1.788,3.423,4.733,3.423,5.916
	c0,1.183-0.333,4.127-3.413,5.91c-15.276,8.817-26.106,23.935-29.714,41.485c-3.685,17.999-9.535,35.56-17.363,52.234
	c-58.613,65.861-131.578,81.482-249.621,52.857c1.172-3.11,2.377-6.282,3.617-9.546C155.824,367.007,169.578,330.822,175.15,290.673
	z"/>
<path d="M250.3,332.698c7.66,0,15.399-2.676,22.306-8.14l26.78-21.185c4.613-3.649,5.393-10.345,1.745-14.957
	c-3.649-4.612-10.344-5.393-14.957-1.745l-26.78,21.185c-7.028,5.56-14.907,4.393-21.083-3.124
	c-10.412-12.654-15.69-29.051-15.69-48.733s5.279-36.079,15.695-48.738c6.172-7.512,14.05-8.678,21.078-3.119l26.78,21.185
	c4.613,3.649,11.309,2.868,14.957-1.745c3.648-4.613,2.867-11.308-1.745-14.957l-26.779-21.185
	c-16.261-12.864-37.129-10.273-50.741,6.296c-13.438,16.333-20.541,37.864-20.541,62.263s7.103,45.93,20.537,62.258
	C229.693,327.792,239.924,332.7,250.3,332.698z"/>
<path d="M284.117,95.081c0.937,0.187,1.873,0.381,2.807,0.581c0.754,0.162,1.506,0.24,2.246,0.24c4.912,0,9.328-3.419,10.401-8.415
	c1.234-5.75-2.426-11.412-8.176-12.646c-1.033-0.221-2.067-0.437-3.105-0.643c-5.765-1.152-11.375,2.589-12.529,8.354
	C274.609,88.319,278.35,93.929,284.117,95.081z"/>
<path d="M364.602,292.819c20.303,0,36.82-16.517,36.82-36.82s-16.517-36.82-36.82-36.82s-36.82,16.517-36.82,36.82
	S344.3,292.819,364.602,292.819z M364.602,240.476c8.56,0,15.524,6.964,15.524,15.524c0,8.56-6.964,15.524-15.524,15.524
	s-15.524-6.964-15.524-15.524C349.079,247.439,356.042,240.476,364.602,240.476z"/>
</svg>