<?xml version="1.0" encoding="iso-8859-1"?>
<!-- Uploaded to: SVG Repo, www.svgrepo.com, Generator: SVG Repo Mixer Tools -->
<svg xmlns="http://www.w3.org/2000/svg" xmlns:xlink="http://www.w3.org/1999/xlink" version="1.1" id="Layer_1"  viewBox="0 0 457 457" xml:space="preserve" width="512" height="512">
<g>
	<path style="fill:#61ACD2;" d="M252.691,136.15c-10.609,0-19.24-8.631-19.24-19.24s8.631-19.24,19.24-19.24   c10.614,0,19.25,8.631,19.25,19.24S263.305,136.15,252.691,136.15z"/>
	<path style="fill:#61ACD2;" d="M303.111,46.49c-10.614,0-19.25-8.636-19.25-19.25c0-10.609,8.636-19.24,19.25-19.24   c10.608,0,19.239,8.631,19.239,19.24C322.35,37.854,313.719,46.49,303.111,46.49z"/>
	<g>
		<path d="M252.69,89.67c-15.02,0-27.24,12.22-27.24,27.24c0,15.02,12.22,27.24,27.24,27.24s27.25-12.22,27.25-27.24    C279.94,101.89,267.71,89.67,252.69,89.67z M252.69,128.15c-6.2,0-11.24-5.04-11.24-11.24s5.04-11.24,11.24-11.24    s11.25,5.04,11.25,11.24S258.89,128.15,252.69,128.15z"/>
		<path d="M303.11,0c-15.03,0-27.25,12.22-27.25,27.24s12.22,27.25,27.25,27.25c15.02,0,27.24-12.23,27.24-27.25S318.13,0,303.11,0z     M303.11,38.49c-6.2,0-11.25-5.05-11.25-11.25S296.91,16,303.11,16c6.19,0,11.24,5.04,11.24,11.24S309.3,38.49,303.11,38.49z"/>
		<path d="M431.428,354h-25.133c-1.534-20.3-9.85-31.765-17.273-41.994c-6.618-9.12-12.463-17.186-14.049-31.404h25.128    c4.418,0,8-3.582,8-8s-3.582-8-8-8h-25.127c1.587-14.214,7.432-22.279,14.048-31.397c7.277-10.028,15.408-21.248,17.171-40.81    h27.255c4.418,0,8-3.582,8-8s-3.582-8-8-8h-27.257c-1.768-19.548-9.895-30.764-17.169-40.788    c-6.617-9.12-12.462-17.186-14.049-31.403h27.149c4.418,0,8-3.582,8-8s-3.582-8-8-8h-27.149    c1.586-14.218,7.432-22.283,14.049-31.403c8.215-11.321,17.525-24.152,17.525-48.8c0-4.418-3.582-8-8-8s-8,3.582-8,8    c0,19.454-6.708,28.699-14.475,39.403c-7.276,10.026-15.405,21.245-17.17,40.8h-27.931c-4.418,0-8,3.582-8,8s3.582,8,8,8h27.931    c1.765,19.555,9.895,30.773,17.17,40.8c6.615,9.118,12.459,17.181,14.047,31.392h-26.475c-4.418,0-8,3.582-8,8s3.582,8,8,8h26.478    c-1.584,14.224-7.431,22.291-14.05,31.413c-7.275,10.025-15.404,21.242-17.17,40.794h-25.91c-4.418,0-8,3.582-8,8s3.582,8,8,8    h25.909c1.765,19.556,9.895,30.775,17.171,40.801c6.801,9.373,12.79,17.627,14.174,32.597h-24.58c-4.418,0-8,3.582-8,8    s3.582,8,8,8h23.964c-6.646,34.404-48.4,71-84.137,71h-25.641c1.089-1.21,2.164-2.498,3.216-3.892    c11.271-14.942,17.43-37.506,18.377-67.108h25.335c4.418,0,8-3.582,8-8s-3.582-8-8-8h-25.133    c-1.534-20.3-9.85-31.765-17.273-41.994c-6.618-9.12-12.463-17.186-14.049-31.404h25.129c4.418,0,8-3.582,8-8s-3.582-8-8-8    h-25.128c1.587-14.214,7.432-22.279,14.048-31.397c8.215-11.32,17.525-24.151,17.525-48.798c0-4.418-3.582-8-8-8s-8,3.582-8,8    c0,19.453-6.708,28.697-14.475,39.401c-7.275,10.025-15.404,21.242-17.17,40.794h-25.91c-4.418,0-8,3.582-8,8s3.582,8,8,8h25.909    c1.765,19.556,9.895,30.775,17.171,40.801c6.801,9.373,12.79,17.627,14.174,32.597h-24.579c-4.418,0-8,3.582-8,8s3.582,8,8,8    h24.42c-1.597,44.632-16.438,71-40.398,71s-38.801-26.368-40.398-71h24.42c4.418,0,8-3.582,8-8s-3.581-8-8-8H203.93    c-1.534-20.3-9.85-31.765-17.273-41.995c-6.618-9.12-12.464-17.185-14.05-31.404h25.129c4.418,0,8-3.582,8-8s-3.582-8-8-8h-25.128    c1.587-14.214,7.432-22.279,14.049-31.397c7.276-10.028,15.408-21.248,17.171-40.81h27.255c4.418,0,8-3.582,8-8s-3.582-8-8-8    h-27.257c-1.767-19.548-9.895-30.764-17.169-40.788c-7.767-10.705-14.475-19.949-14.475-39.403c0-4.418-3.582-8-8-8s-8,3.582-8,8    c0,24.647,9.311,37.479,17.525,48.8c6.616,9.118,12.46,17.181,14.048,31.392H161.28c-4.418,0-8,3.582-8,8s3.582,8,8,8h26.478    c-1.585,14.224-7.431,22.291-14.05,31.413c-7.275,10.025-15.404,21.242-17.17,40.794h-25.91c-4.418,0-8,3.582-8,8s3.582,8,8,8    h25.909c1.765,19.556,9.895,30.775,17.171,40.801c6.801,9.373,12.79,17.627,14.174,32.597h-24.58c-4.418,0-8,3.582-8,8    s3.582,8,8,8h25.335c0.947,29.601,7.106,52.166,18.377,67.108c1.052,1.394,2.127,2.683,3.216,3.892h-26.047    c-35.737,0-77.492-36.596-84.137-71h23.964c4.418,0,8-3.582,8-8s-3.582-8-8-8H98.875c-1.534-20.3-9.85-31.765-17.273-41.994    c-6.618-9.12-12.464-17.186-14.05-31.404h25.129c4.418,0,8-3.582,8-8s-3.582-8-8-8H67.554    c1.587-14.214,7.432-22.279,14.049-31.397c7.276-10.028,15.408-21.248,17.171-40.81h27.256c4.418,0,8-3.582,8-8s-3.582-8-8-8    H98.771c-1.767-19.548-9.895-30.764-17.169-40.788c-6.617-9.12-12.463-17.186-14.049-31.403h27.15c4.418,0,8-3.582,8-8    s-3.582-8-8-8h-27.15C69.139,73.985,74.985,65.92,81.602,56.8C89.817,45.479,99.127,32.647,99.127,8c0-4.418-3.582-8-8-8    s-8,3.582-8,8c0,19.454-6.708,28.699-14.475,39.403c-7.275,10.026-15.405,21.245-17.17,40.8H23.552c-4.418,0-8,3.582-8,8    s3.582,8,8,8h27.931c1.765,19.555,9.895,30.773,17.17,40.8c6.616,9.118,12.46,17.181,14.048,31.392H56.225c-4.418,0-8,3.582-8,8    s3.582,8,8,8h26.477c-1.585,14.224-7.431,22.291-14.05,31.413c-7.275,10.025-15.404,21.242-17.17,40.794h-25.91    c-4.418,0-8,3.582-8,8s3.582,8,8,8h25.909c1.765,19.556,9.895,30.775,17.171,40.801c6.801,9.373,12.79,17.627,14.174,32.597    h-24.58c-4.418,0-8,3.582-8,8s3.582,8,8,8H83.85c2.877,18.936,14.299,39.256,31.78,55.949    C136.297,445.682,161.282,457,184.182,457h121.311c22.899,0,47.885-11.318,68.552-31.051    c17.481-16.692,28.903-37.013,31.78-55.949h25.604c4.418,0,8-3.582,8-8S435.846,354,431.428,354z"/>
	</g>
</g>















</svg>