<?xml version="1.0" encoding="iso-8859-1"?>
<!-- Uploaded to: SVG Repo, www.svgrepo.com, Generator: SVG Repo Mixer Tools -->
<svg xmlns="http://www.w3.org/2000/svg" xmlns:xlink="http://www.w3.org/1999/xlink" version="1.1" id="Layer_1"  viewBox="0 0 490.44 490.44" xml:space="preserve" width="512" height="512">
<g>
	<path style="fill:#3EBD9E;" d="M229.27,464.023v-59.26H63.54c-5.484,0-10.597-2.175-14.396-6.123   c-3.785-3.92-5.774-9.104-5.59-14.585c0.385-10.647,9.565-19.292,20.465-19.292h165.25v-37.38H27.8   c-10.918,0-19.8-8.883-19.8-19.801v-0.399c0-10.918,8.882-19.8,19.8-19.8h20.25V99.044c0-11.027,8.968-19.998,19.989-19.998   c0.247,0,0.494,0.004,0.743,0.013c10.616,0.366,19.268,9.547,19.268,20.465v68.511h28.87v-32.621   c0-11.027,8.959-19.998,19.972-19.998c0.257,0,0.514,0.005,0.773,0.015c10.604,0.365,19.255,9.546,19.255,20.464v34.52   c0,20.744-16.876,37.621-37.62,37.621H88.05v79.35h101.3V46.424c0-11.032,8.976-20.008,20.008-20.008   c0.237,0,0.475,0.004,0.714,0.013c10.633,0.383,19.278,9.563,19.278,20.465v240.49h30.101v-22.561   c0-11.032,8.976-20.008,20.007-20.008c0.237,0,0.475,0.004,0.714,0.013c10.634,0.385,19.279,9.57,19.279,20.476v22.08h48.93v-77.03   h-8.771c-20.749,0-37.63-16.876-37.63-37.62v-19.699c-19.953-1.056-35.59-17.554-35.59-37.561v-69.05   c0-11.032,8.976-20.008,20.008-20.008c0.237,0,0.475,0.004,0.714,0.013c10.633,0.383,19.278,9.563,19.278,20.465v66.25   c19.956,1.068,35.59,17.57,35.59,37.57v19.64h27.46v-80.6c0-11.027,8.979-19.998,20.017-19.998c0.237,0,0.475,0.004,0.714,0.013   c10.629,0.383,19.27,9.563,19.27,20.465v80.12h33v-80.6c0-11.027,8.979-19.998,20.018-19.998c0.237,0,0.475,0.004,0.714,0.013   c10.628,0.383,19.269,9.563,19.269,20.465v82.5c0,20.744-16.876,37.62-37.62,37.62H388.38v79.41c0,20.744-16.876,37.62-37.62,37.62   h-81.49v136.64H229.27z"/>
	<g>
		<path d="M463.46,61.774c-15.91-0.55-29.02,12.21-29.02,27.98v72.6h-17v-72.12c0-15.42-11.85-27.92-26.99-28.46    c-15.91-0.55-29.01,12.21-29.01,27.98v72.6h-11.46v-11.64c0-21.66-15.12-39.94-35.59-44.52v-59.3c0-15.42-11.86-27.92-26.99-28.46    c-15.92-0.54-29.01,12.21-29.01,27.99v69.05c0,21.66,15.12,39.93,35.59,44.51v12.75c0,25.16,20.47,45.62,45.63,45.62h0.77v61.03    h-32.93v-14.08c0-15.43-11.86-27.93-26.99-28.47c-15.91-0.54-29.01,12.21-29.01,27.99v14.56h-14.1V46.893    c0-15.42-11.85-27.92-26.99-28.46c-15.91-0.55-29.01,12.21-29.01,27.99v232.96h-85.3v-63.35h23.25    c25.15,0,45.62-20.47,45.62-45.62v-34.52c0-15.43-11.85-27.93-26.99-28.46c-15.91-0.56-29.01,12.2-29.01,27.98v24.62H96.05v-60.51    c0-15.43-11.86-27.93-26.99-28.47c-15.88-0.53-29.01,12.21-29.01,27.99v180.34H27.8c-15.33,0-27.8,12.47-27.8,27.8v0.4    c0,15.33,12.47,27.8,27.8,27.8h193.47v21.38H64.02c-15.42,0-27.92,11.86-28.46,26.99c-0.27,7.67,2.51,14.94,7.84,20.46    c5.32,5.51,12.48,8.55,20.14,8.55h157.73v51.26c0,4.42,3.58,8,8,8h40c4.42,0,8-3.58,8-8v-128.64h73.49    c25.16,0,45.62-20.47,45.62-45.62v-71.41h48.44c25.16,0,45.62-20.46,45.62-45.62v-82.5C490.44,74.813,478.59,62.313,463.46,61.774    z M474.44,172.734c0,16.33-13.28,29.62-29.62,29.62h-56.44c-4.41,0-8,3.58-8,8v79.41c0,16.33-13.28,29.62-29.62,29.62h-81.49    c-4.42,0-8,3.58-8,8v128.64h-24v-51.26c0-4.42-3.58-8-8-8H63.54c-3.28,0-6.35-1.3-8.63-3.67c-2.28-2.36-3.47-5.48-3.36-8.77    c0.23-6.37,5.82-11.56,12.47-11.56h165.25c4.42,0,8-3.58,8-8v-37.38c0-4.42-3.58-8-8-8H27.8c-6.51,0-11.8-5.3-11.8-11.8v-0.4    c0-6.51,5.29-11.8,11.8-11.8h20.25c4.41,0,8-3.58,8-8V99.044c0-6.77,5.61-12.24,12.44-11.99c6.37,0.22,11.56,5.82,11.56,12.47    v68.51c0,4.42,3.58,8,8,8h28.87c4.42,0,8-3.58,8-8v-32.62c0-6.77,5.61-12.25,12.44-11.99c6.38,0.22,11.56,5.82,11.56,12.47v34.52    c0,16.33-13.29,29.62-29.62,29.62H88.05c-4.42,0-8,3.58-8,8v79.35c0,4.42,3.58,8,8,8h101.3c4.42,0,8-3.58,8-8V46.423    c0-6.77,5.61-12.24,12.44-12c6.38,0.23,11.56,5.82,11.56,12.47v240.49c0,4.42,3.58,8,8,8h30.1c4.42,0,8-3.58,8-8v-22.56    c0-6.77,5.62-12.24,12.44-12c6.37,0.23,11.56,5.83,11.56,12.48v22.08c0,4.42,3.58,8,8,8h48.93c4.42,0,8-3.58,8-8v-77.03    c0-4.42-3.58-8-8-8h-8.77c-16.34,0-29.63-13.29-29.63-29.62v-19.7c0-4.25-3.32-7.76-7.57-7.99    c-15.71-0.83-28.02-13.83-28.02-29.57v-69.05c0-6.77,5.62-12.24,12.44-12c6.37,0.23,11.56,5.82,11.56,12.47v66.25    c0,4.25,3.33,7.76,7.57,7.99c15.72,0.84,28.02,13.83,28.02,29.58v19.64c0,4.42,3.59,8,8,8h27.46c4.42,0,8-3.58,8-8v-80.6    c0-6.76,5.6-12.23,12.45-11.99c6.37,0.23,11.55,5.82,11.55,12.47v80.12c0,4.42,3.58,8,8,8h33c4.42,0,8-3.58,8-8v-80.6    c0-6.76,5.62-12.23,12.45-11.99c6.37,0.23,11.55,5.82,11.55,12.47V172.734z"/>
	</g>
</g>















</svg>